<svg data-v-6805eed4="" version="1.0" xmlns="http://www.w3.org/2000/svg" xmlns:xlink="http://www.w3.org/1999/xlink" width="100%" height="100%" viewBox="0 0 340.000000 250.000000" preserveAspectRatio="xMidYMid meet" color-interpolation-filters="sRGB" style="margin: auto;"> <rect data-v-6805eed4="" x="0" y="0" width="100%" height="100%" fill="#ffffff" fill-opacity="1" class="background"></rect> <rect data-v-6805eed4="" x="0" y="0" width="100%" height="100%" fill="url(#watermark)" fill-opacity="1" class="watermarklayer"></rect> <g data-v-6805eed4="" fill="#171e60" class="icon-text-wrapper icon-svg-group iconsvg" transform="translate(81.375,73.78256607055664)"><g class="iconsvg-imagesvg" transform="translate(58.625,0)"><g><rect fill="#171e60" fill-opacity="0" stroke-width="2" x="0" y="0" width="60" height="69.26486885851496" class="image-rect"></rect> <svg x="0" y="0" width="60" height="69.26486885851496" filtersec="colorsb1221922968" class="image-svg-svg primary" style="overflow: visible;"><svg xmlns="http://www.w3.org/2000/svg" viewBox="0 0 39.56999969482422 45.68000030517578"><defs><linearGradient id="c8f07057-4ece-4ee1-bd75-599ea8d51e28" x1="39.57" y1="28.83" x2="0" y2="28.83" gradientUnits="userSpaceOnUse"><stop offset="0" stop-color="#2D93F9"></stop><stop offset="1" stop-color="#171e60"></stop></linearGradient><linearGradient id="f816c000-3067-41c7-a014-62e7852027a5" y1="16.86" x2="39.57" y2="16.86" gradientUnits="userSpaceOnUse"><stop offset="0" stop-color="#2D93F9"></stop><stop offset="1" stop-color="#171e60"></stop></linearGradient></defs><g><g><path fill="url(#c8f07057-4ece-4ee1-bd75-599ea8d51e28)" d="M11.32 16.86l20.74 11.96-12.28 7.09L0 24.49v9.77l19.78 11.42 19.79-11.42V23.39L19.78 11.97l-8.46 4.89z"></path><path fill="url(#f816c000-3067-41c7-a014-62e7852027a5)" d="M28.25 28.82L7.51 16.86l12.27-7.08 19.79 11.41v-9.77L19.79 0 0 11.43v10.86l19.78 11.42 8.47-4.89z"></path></g></g></svg></svg> <!----></g></g> <g transform="translate(0,76.2648696899414)"><g data-gra="path-name" fill-rule="" class="tp-name iconsvg-namesvg"><g transform="scale(1)"><g><path d="M1.24-10.54C1.24-9.66 1.48-8.96 1.95-8.46 3.38-6.95 6.07-6.71 8.38-6.05 9.54-5.72 10.86-5.25 10.86-3.9 10.86-2.1 8.83-1.62 6.86-1.62 4.73-1.62 3.29-2.81 3.12-4.54L0.87-4.54C0.94-3.17 1.5-2.06 2.54-1.21 3.68-0.25 5.21 0.23 7.14 0.23 10.38 0.23 13.03-1.03 13.03-4.1 13.03-5.01 12.79-5.72 12.32-6.24 10.9-7.8 8.24-8.06 5.89-8.7 4.75-9 3.41-9.43 3.41-10.75 3.41-12.13 4.52-12.83 6.75-12.83 8.97-12.83 10.18-12.08 10.37-10.57L12.57-10.57C12.25-13.3 9.99-14.68 6.9-14.68 3.66-14.68 1.24-13.53 1.24-10.54ZM21.87-12.71C24.08-12.71 25.45-10.92 25.45-8.67L25.45 0 27.62 0 27.62-8.64C27.62-11.01 29.19-12.71 31.52-12.71 33.73-12.71 35.1-10.92 35.1-8.67L35.1 0 37.27 0 37.27-8.72C37.27-11.88 35.23-14.68 31.91-14.68 29.46-14.68 27.81-13.35 26.95-11.76 26.16-13.35 24.57-14.68 22.36-14.68 20.39-14.68 18.93-13.87 17.97-12.25L17.97-14.44 15.8-14.44 15.8 0 17.97 0 17.97-8.64C17.97-11.01 19.55-12.71 21.87-12.71ZM39.98-7.22C39.98-3.04 42.82 0.23 46.97 0.23 49.26 0.23 50.99-0.62 52.14-2.31L52.14 0 54.31 0 54.31-14.44 52.14-14.44 52.14-12.1C50.97-13.82 49.29-14.68 47.12-14.68 42.84-14.68 39.98-11.48 39.98-7.22ZM47.26-1.73C44.21-1.73 42.15-4.1 42.15-7.22 42.15-10.34 44.21-12.71 47.26-12.71 50.34-12.71 52.26-10.34 52.26-7.22 52.26-4.1 50.34-1.73 47.26-1.73ZM60.23-10.89L60.23-14.44 58.06-14.44 58.06 0 60.23 0 60.23-6.36C60.23-9.6 62.28-12.51 65.43-12.51L65.69-12.51 65.69-14.68 65.55-14.68C62.7-14.68 60.86-12.92 60.23-10.89ZM69.59 0L71.76 0 71.76-12.54 75.08-12.54 75.08-14.44 71.76-14.44 71.76-19.61 69.59-19.61 69.59-14.44 66.64-14.44 66.64-12.54 69.59-12.54ZM97.93-7.22C97.93-11.37 95.08-14.68 90.94-14.68 88.65-14.68 86.92-13.83 85.77-12.13L85.77-14.44 83.6-14.44 83.6 5.72 85.77 5.72 85.77-2.34C86.94-0.63 88.62 0.23 90.79 0.23 95.06 0.23 97.93-2.99 97.93-7.22ZM95.76-7.22C95.76-4.1 93.7-1.73 90.65-1.73 87.57-1.73 85.65-4.1 85.65-7.22 85.65-10.34 87.57-12.71 90.65-12.71 93.7-12.71 95.76-10.34 95.76-7.22ZM99.87-7.22C99.87-3.04 102.71 0.23 106.86 0.23 109.15 0.23 110.87-0.62 112.03-2.31L112.03 0 114.19 0 114.19-14.44 112.03-14.44 112.03-12.1C110.85-13.82 109.18-14.68 107-14.68 102.73-14.68 99.87-11.48 99.87-7.22ZM107.14-1.73C104.09-1.73 102.03-4.1 102.03-7.22 102.03-10.34 104.09-12.71 107.14-12.71 110.22-12.71 112.14-10.34 112.14-7.22 112.14-4.1 110.22-1.73 107.14-1.73ZM120.12-10.89L120.12-14.44 117.95-14.44 117.95 0 120.12 0 120.12-6.36C120.12-9.6 122.17-12.51 125.32-12.51L125.58-12.51 125.58-14.68 125.43-14.68C122.59-14.68 120.74-12.92 120.12-10.89ZM130.08 0L130.08-4.56 132.8-7.25 137.85 0 140.51 0 134.27-8.75 140.08-14.44 137.04-14.44 130.08-7.28 130.08-20.22 127.92-20.22 127.92 0ZM142.42-14.44L142.42 0 144.58 0 144.58-14.44ZM144.67-19.7L142.33-19.7 142.33-16.87 144.67-16.87ZM154.87-12.71C157.35-12.71 158.91-10.89 158.91-8.35L158.91 0 161.08 0 161.08-8.41C161.08-10.33 160.48-11.88 159.29-13.06 158.28-14.1 156.99-14.68 154.98-14.68 152.91-14.68 151.44-13.43 150.51-12.19L150.51-14.44 148.34-14.44 148.34 0 150.51 0 150.51-8.32C150.51-10.83 152.38-12.71 154.87-12.71ZM163.79-7.34C163.79-3.18 166.67 0 170.78 0 173.06 0 174.78-0.86 175.96-2.57L175.96-0.58C175.96 2.56 174.41 3.99 171.19 3.99 168.99 3.99 167.59 3.24 166.97 1.73L164.57 1.73C165.44 4.47 167.8 5.95 171.56 5.95 175.62 5.95 178.12 3.66 178.12-0.43L178.12-14.44 175.96-14.44 175.96-12.13C174.8-13.83 173.13-14.68 170.94-14.68 166.69-14.68 163.79-11.58 163.79-7.34ZM165.96-7.34C165.96-10.42 168-12.71 171.07-12.71 174.11-12.71 176.07-10.44 176.07-7.34 176.07-4.27 174.25-1.96 171.07-1.96 168-1.96 165.96-4.26 165.96-7.34Z" transform="translate(-0.8700000047683716, 20.219999313354492)"></path></g> <!----> <!----> <!----> <!----> <!----> <!----> <!----></g></g> <!----></g></g><defs v-gra="od"></defs></svg>